<?xml version="1.0" encoding="UTF-8" standalone="no"?>
<!DOCTYPE svg PUBLIC "-//W3C//DTD SVG 1.1//EN" "http://www.w3.org/Graphics/SVG/1.1/DTD/svg11.dtd">
<svg xmlns="http://www.w3.org/2000/svg" version="1.1" viewBox="0.00 0.00 500.00 500.00">
<g stroke-width="2.00" fill="none" stroke-linecap="butt">
<path stroke="#d8818f" vector-effect="non-scaling-stroke" d="
  M 149.43 125.57
  C 162.26 130.39 175.31 134.90 187.72 140.59"
/>
<path stroke="#f9cb82" vector-effect="non-scaling-stroke" d="
  M 187.72 140.59
  Q 187.84 140.68 187.93 140.85
  Q 188.12 141.21 187.92 141.57
  C 184.85 147.02 180.00 159.20 184.11 165.00
  A 0.96 0.95 -34.9 0 1 183.87 166.34
  C 177.09 170.99 178.73 181.13 183.43 186.47"
/>
<path stroke="#8f9195" vector-effect="non-scaling-stroke" d="
  M 183.43 186.47
  C 181.05 189.76 182.61 218.37 182.72 224.50"
/>
<path stroke="#80dad2" vector-effect="non-scaling-stroke" d="
  M 182.72 224.50
  L 177.10 221.02
  Q 176.69 220.77 176.65 220.28
  C 175.78 209.03 166.58 196.97 154.12 198.20
  C 146.83 198.91 148.65 208.71 150.60 212.99
  A 0.33 0.33 0.0 0 1 150.16 213.42
  Q 142.15 209.63 135.90 203.43
  Q 135.39 202.92 135.15 203.60
  Q 134.56 205.24 134.59 207.00
  C 134.79 221.78 144.38 235.69 159.25 238.23
  Q 164.87 239.19 170.25 235.69
  Q 170.69 235.41 171.10 235.74
  Q 176.28 240.04 182.58 242.42"
/>
<path stroke="#8f9195" vector-effect="non-scaling-stroke" d="
  M 182.58 242.42
  C 182.36 250.80 180.76 260.13 188.04 264.93
  Q 188.44 265.20 188.78 266.01"
/>
<path stroke="#81e5da" vector-effect="non-scaling-stroke" d="
  M 188.78 266.01
  L 188.61 266.27
  Q 188.45 266.53 188.52 266.83
  C 192.46 282.86 211.14 289.33 226.02 289.34
  Q 241.70 289.35 257.55 289.21"
/>
<path stroke="#80dad2" vector-effect="non-scaling-stroke" d="
  M 257.55 289.21
  C 276.73 289.44 291.73 290.97 306.35 282.23
  C 312.82 278.35 316.31 273.42 316.73 266.03"
/>
<path stroke="#8f9195" vector-effect="non-scaling-stroke" d="
  M 316.73 266.03
  C 316.49 265.44 316.74 264.76 317.27 264.35
  C 322.69 260.08 321.44 250.23 321.20 242.35"
/>
<path stroke="#81e5da" vector-effect="non-scaling-stroke" d="
  M 321.20 242.35
  Q 329.81 240.12 336.79 234.68
  A 0.69 0.69 0.0 0 1 337.62 234.67
  C 349.90 243.90 365.09 234.43 370.83 222.66
  Q 374.81 214.51 374.78 204.41
  A 1.02 1.01 66.7 0 0 373.03 203.71
  Q 367.55 209.55 359.86 211.71
  A 0.31 0.31 0.0 0 1 359.47 211.35
  C 360.41 206.84 360.46 199.15 355.62 196.84
  C 349.09 193.72 339.62 202.04 336.10 206.85
  Q 331.84 212.69 332.59 220.61
  Q 332.63 221.10 332.17 221.28
  L 321.24 225.33"
/>
<path stroke="#8f9195" vector-effect="non-scaling-stroke" d="
  M 321.24 225.33
  Q 321.19 189.38 321.29 154.25
  Q 321.32 145.82 317.49 138.89"
/>
<path stroke="#d8818f" vector-effect="non-scaling-stroke" d="
  M 317.49 138.89
  L 357.76 124.81"
/>
<path stroke="#f1b48b" vector-effect="non-scaling-stroke" d="
  M 357.76 124.81
  L 368.37 120.76
  Q 369.03 120.51 368.37 120.24
  Q 311.01 96.68 252.95 75.50"
/>
<path stroke="#f9cb82" vector-effect="non-scaling-stroke" d="
  M 252.95 75.50
  Q 200.09 95.08 148.18 115.16
  Q 144.17 116.72 137.12 120.23
  Q 136.61 120.49 137.11 120.76
  Q 143.05 124.03 149.43 125.57"
/>
<path stroke="#ec810f" vector-effect="non-scaling-stroke" d="
  M 252.95 75.50
  C 253.75 77.30 253.25 77.84 253.25 79.44
  Q 253.29 97.25 253.19 115.33"
/>
<path stroke="#8a5e19" vector-effect="non-scaling-stroke" d="
  M 253.19 115.33
  Q 235.61 115.42 218.80 118.89
  C 207.70 121.18 199.88 124.62 195.52 134.80
  Q 192.57 141.67 197.44 147.98"
/>
<path stroke="#7cb25e" vector-effect="non-scaling-stroke" d="
  M 197.44 147.98
  C 199.30 153.16 202.61 158.84 197.02 163.24
  A 1.05 1.04 -48.4 0 0 197.12 164.95
  C 199.31 166.28 201.03 167.96 201.63 170.64
  C 203.36 178.26 203.64 185.61 195.51 189.07"
/>
<path stroke="#8a5e19" vector-effect="non-scaling-stroke" d="
  M 195.51 189.07
  C 190.24 190.61 187.63 189.71 183.43 186.47"
/>
<path stroke="#d34e13" vector-effect="non-scaling-stroke" d="
  M 187.72 140.59
  C 188.01 140.40 190.05 131.63 190.71 130.09
  Q 190.79 129.91 190.65 129.78
  L 190.40 129.52
  A 0.24 0.24 0.0 0 0 190.01 129.60
  L 188.56 133.30
  A 0.79 0.79 0.0 0 1 187.55 133.76
  Q 173.92 128.74 160.00 124.51
  Q 154.74 122.90 149.43 125.57"
/>
<path stroke="#cb371c" vector-effect="non-scaling-stroke" d="
  M 357.76 124.81
  Q 352.90 124.38 348.35 122.41
  Q 347.88 122.20 347.38 122.34
  Q 330.92 126.83 314.94 133.42"
/>
<path stroke="#824721" vector-effect="non-scaling-stroke" d="
  M 314.94 133.42
  C 307.61 124.99 299.74 121.12 288.20 118.91
  Q 270.73 115.56 253.19 115.33"
/>
<path stroke="#116d69" vector-effect="non-scaling-stroke" d="
  M 182.58 242.42
  C 194.85 238.64 187.77 229.98 182.72 224.50"
/>
<path stroke="#691426" vector-effect="non-scaling-stroke" d="
  M 314.94 133.42
  Q 315.56 136.42 317.49 138.89"
/>
<path stroke="#127871" vector-effect="non-scaling-stroke" d="
  M 321.24 225.33
  Q 321.11 225.86 320.55 226.27
  Q 309.05 234.65 321.20 242.35"
/>
<path stroke="#116d69" vector-effect="non-scaling-stroke" d="
  M 316.73 266.03
  Q 315.69 265.58 315.25 265.75
  Q 302.56 270.64 296.66 260.03"
/>
<path stroke="#127871" vector-effect="non-scaling-stroke" d="
  M 296.66 260.03
  C 296.26 258.54 295.83 257.21 295.81 255.70
  Q 295.62 240.23 295.71 224.69
  Q 295.71 224.19 296.06 223.82
  C 301.17 218.51 302.90 210.24 304.27 203.29"
/>
<path stroke="#126361" vector-effect="non-scaling-stroke" d="
  M 304.27 203.29
  C 305.04 201.03 306.17 198.71 306.47 196.38
  Q 309.00 176.94 314.20 158.04
  C 319.81 137.60 300.56 125.17 282.96 123.72"
/>
<path stroke="#127871" vector-effect="non-scaling-stroke" d="
  M 282.96 123.72
  Q 258.26 122.84 233.43 123.18
  C 215.82 123.42 200.47 128.09 197.44 147.98"
/>
<path stroke="#03b6a7" vector-effect="non-scaling-stroke" d="
  M 282.96 123.72
  Q 284.92 124.47 286.94 125.00
  C 295.57 127.26 302.83 135.86 305.80 143.71
  C 308.30 150.34 309.04 161.40 308.61 168.56
  Q 307.82 181.92 304.27 203.29"
/>
<path stroke="#02c1ae" vector-effect="non-scaling-stroke" d="
  M 296.66 260.03
  C 285.48 271.05 272.77 280.58 258.07 286.60
  Q 256.35 287.30 257.55 289.21"
/>
<path stroke="#127871" vector-effect="non-scaling-stroke" d="
  M 188.78 266.01
  C 189.15 265.98 189.36 265.94 189.70 266.14
  C 193.97 268.64 210.25 274.71 210.25 266.00
  Q 210.25 245.50 210.25 225.00
  C 210.25 224.11 209.92 223.01 209.27 222.15
  C 201.52 211.97 198.94 201.09 195.51 189.07"
/>
<path stroke="#d8818f" vector-effect="non-scaling-stroke" d="
  M 170.34 143.31
  Q 164.74 140.28 158.59 141.95"
/>
<path stroke="#f1b48b" vector-effect="non-scaling-stroke" d="
  M 158.59 141.95
  Q 150.56 142.20 142.90 144.85"
/>
<path stroke="#f9cb82" vector-effect="non-scaling-stroke" d="
  M 142.90 144.85
  L 112.37 156.18
  Q 112.00 156.32 112.05 156.71
  Q 112.74 161.78 117.67 160.17
  A 0.56 0.56 0.0 0 1 118.17 161.16
  C 115.74 162.84 107.06 167.98 104.74 164.06
  A 0.26 0.26 0.0 0 0 104.26 164.25
  Q 106.14 172.55 113.03 177.63
  A 0.81 0.80 -45.3 0 0 114.01 177.62
  L 116.35 175.80
  A 0.37 0.37 0.0 0 1 116.91 176.26
  L 113.57 182.65
  A 1.35 1.33 -59.9 0 0 114.03 184.41
  Q 118.24 187.10 123.21 187.71
  Q 123.69 187.77 123.74 187.29
  Q 124.41 181.09 128.11 176.11
  A 0.42 0.42 0.0 0 1 128.82 176.55
  Q 126.31 181.53 127.63 187.08
  A 0.63 0.63 0.0 0 0 128.37 187.55
  Q 130.90 187.03 132.82 188.50
  Q 133.35 188.91 133.62 188.30
  Q 141.96 169.50 160.21 156.65"
/>
<path stroke="#d8818f" vector-effect="non-scaling-stroke" d="
  M 160.21 156.65
  L 167.58 151.88"
/>
<path stroke="#f9cb82" vector-effect="non-scaling-stroke" d="
  M 167.58 151.88
  C 169.08 157.69 176.45 153.11 173.15 146.00"
/>
<path stroke="#f1b48b" vector-effect="non-scaling-stroke" d="
  M 173.15 146.00
  Q 179.20 145.91 178.60 140.57
  A 2.29 2.29 0.0 0 0 175.46 138.70
  Q 172.29 139.99 170.34 143.31"
/>
<path stroke="#ec810f" vector-effect="non-scaling-stroke" d="
  M 173.15 146.00
  L 170.30 144.01"
/>
<path stroke="#cb371c" vector-effect="non-scaling-stroke" d="
  M 170.30 144.01
  Q 170.13 143.47 170.34 143.31"
/>
<path stroke="#d34e13" vector-effect="non-scaling-stroke" d="
  M 170.30 144.01
  C 166.71 145.05 167.65 149.01 167.58 151.88"
/>
<path stroke="#d34e13" vector-effect="non-scaling-stroke" d="
  M 160.21 156.65
  Q 149.15 156.95 144.23 158.45
  Q 134.96 161.28 117.29 169.58
  Q 116.12 170.13 117.09 169.28
  L 125.64 161.82"
/>
<path stroke="#cb371c" vector-effect="non-scaling-stroke" d="
  M 125.64 161.82
  L 134.94 153.74"
/>
<path stroke="#d34e13" vector-effect="non-scaling-stroke" d="
  M 134.94 153.74
  L 146.99 147.28"
/>
<path stroke="#cb371c" vector-effect="non-scaling-stroke" d="
  M 146.99 147.28
  L 158.59 141.95"
/>
<path stroke="#ec810f" vector-effect="non-scaling-stroke" d="
  M 134.94 153.74
  Q 128.86 154.61 124.80 159.75
  Q 124.52 160.10 124.83 160.43
  Q 125.40 161.07 125.64 161.82"
/>
<path stroke="#ec810f" vector-effect="non-scaling-stroke" d="
  M 146.99 147.28
  L 142.90 144.85"
/>
<path stroke="#f1b48b" vector-effect="non-scaling-stroke" d="
  M 238.14 321.19
  Q 238.37 312.82 232.56 305.69
  Q 226.63 298.40 216.81 299.25"
/>
<path stroke="#f9cb82" vector-effect="non-scaling-stroke" d="
  M 216.81 299.25
  C 185.86 304.08 195.39 358.09 225.29 346.83
  C 235.20 343.10 238.84 331.05 238.14 321.19"
/>
<path stroke="#ec810f" vector-effect="non-scaling-stroke" d="
  M 216.81 299.25
  L 209.77 326.66
  A 1.08 1.07 16.5 0 0 210.48 327.95
  Q 214.98 329.42 219.69 328.93
  Q 227.63 328.11 238.14 321.19"
/>
<path stroke="#f9cb82" vector-effect="non-scaling-stroke" d="
  M 267.61 321.41
  C 267.39 334.17 273.37 347.94 288.18 348.24
  Q 296.39 348.41 303.24 341.53"
/>
<path stroke="#f1b48b" vector-effect="non-scaling-stroke" d="
  M 303.24 341.53
  Q 310.82 330.82 307.67 316.82
  C 305.07 305.31 291.39 294.34 279.44 301.44
  Q 267.74 308.40 267.61 321.41"
/>
<path stroke="#ec810f" vector-effect="non-scaling-stroke" d="
  M 303.24 341.53
  Q 296.42 338.95 290.11 335.65
  C 284.56 332.75 281.71 327.93 275.65 325.45
  Q 271.66 323.81 267.61 321.41"
/>
<path stroke="#8f9195" vector-effect="non-scaling-stroke" d="
  M 375.65 362.78
  Q 371.25 361.01 367.00 361.01
  Q 257.55 361.00 148.10 360.99
  C 135.42 360.99 125.35 364.13 121.20 377.03
  Q 119.91 381.04 119.97 388.64
  Q 120.05 400.08 120.00 411.51
  Q 119.96 419.81 121.30 423.82
  C 124.40 433.10 132.42 439.02 142.41 439.02
  Q 253.65 438.98 364.92 439.01
  C 375.21 439.02 383.36 435.28 386.99 425.21
  Q 388.47 421.08 388.49 412.05
  Q 388.52 399.15 388.48 386.23
  C 388.45 376.51 385.47 366.73 375.65 362.78"
/>
<path stroke="#8f9195" vector-effect="non-scaling-stroke" d="
  M 0.86 499.75
  L 2.42 499.77
  A 0.25 0.25 0.0 0 0 2.67 499.52
  L 2.67 499.35
  A 19.06 0.97 -89.4 0 0 1.90 480.28
  L 1.78 480.28
  A 19.06 0.97 -89.4 0 0 0.61 499.33
  L 0.61 499.50
  A 0.25 0.25 0.0 0 0 0.86 499.75"
/>
<path stroke="#ec810f" vector-effect="non-scaling-stroke" d="
  M 266.44 95.69
  Q 262.80 103.61 270.87 107.33
  Q 281.54 112.25 292.37 116.80
  C 299.50 119.81 307.51 119.47 314.78 124.14
  Q 315.92 124.88 317.20 124.40
  Q 326.88 120.82 336.99 118.65
  A 0.57 0.57 0.0 0 0 337.05 117.55
  Q 317.29 110.82 297.84 103.51
  C 292.68 101.57 286.09 100.13 280.39 97.79
  C 277.15 96.46 273.42 92.09 269.72 93.03
  Q 267.38 93.63 266.44 95.69"
/>
<path stroke="#127871" vector-effect="non-scaling-stroke" d="
  M 212.64 153.60
  L 213.93 155.08
  Q 214.28 155.48 214.52 155.01
  Q 217.74 148.77 225.40 144.48"
/>
<path stroke="#81e5da" vector-effect="non-scaling-stroke" d="
  M 225.40 144.48
  Q 225.73 147.15 227.14 148.95
  Q 227.43 149.32 227.90 149.39
  C 231.44 149.99 236.91 149.20 236.10 144.14
  C 235.72 141.79 232.68 139.32 230.98 137.46
  C 225.99 131.98 217.82 132.89 213.10 137.76
  C 209.43 141.55 210.04 148.52 211.34 153.16
  A 0.81 0.81 0.0 0 0 211.97 153.73
  Q 212.38 153.81 212.64 153.60"
/>
<path stroke="#8f9195" vector-effect="non-scaling-stroke" d="
  M 225.40 144.48
  Q 215.35 140.55 212.64 153.60"
/>
<path stroke="#127871" vector-effect="non-scaling-stroke" d="
  M 275.57 146.64
  C 280.30 148.06 286.76 152.37 285.59 157.81
  Q 285.50 158.24 285.12 158.48
  L 280.63 161.35
  A 0.51 0.50 -66.7 0 0 280.99 162.27
  Q 288.60 160.75 289.98 152.48"
/>
<path stroke="#81e5da" vector-effect="non-scaling-stroke" d="
  M 289.98 152.48
  Q 292.33 152.29 292.49 149.74
  C 293.56 132.54 273.46 128.06 265.70 142.28
  Q 265.41 142.80 265.74 143.29
  L 269.52 149.08
  A 1.10 1.09 -16.8 0 0 270.46 149.58
  Q 273.62 149.56 275.57 146.64"
/>
<path stroke="#8f9195" vector-effect="non-scaling-stroke" d="
  M 289.98 152.48
  C 288.41 145.45 283.37 141.50 276.17 144.07
  Q 275.67 144.24 275.55 144.76
  Q 275.33 145.76 275.57 146.64"
/>
<path stroke="#03b6a7" vector-effect="non-scaling-stroke" d="
  M 211.63 207.01
  C 208.79 225.01 228.50 228.48 240.86 232.15
  Q 241.35 232.30 241.84 232.13
  C 244.64 231.18 249.59 227.92 252.84 229.05
  Q 253.37 229.24 253.39 229.80
  Q 254.19 256.86 253.40 283.91
  Q 253.36 285.23 254.67 285.10
  Q 261.50 284.40 266.36 279.49
  A 1.07 1.07 0.0 0 0 266.64 278.52
  Q 266.11 275.99 267.96 274.19
  Q 268.32 273.84 268.41 273.35
  L 269.34 267.98"
/>
<path stroke="#127871" vector-effect="non-scaling-stroke" d="
  M 269.34 267.98
  C 274.16 264.64 275.72 259.01 275.48 253.36
  C 275.23 247.72 270.20 241.49 264.01 243.37"
/>
<path stroke="#03b6a7" vector-effect="non-scaling-stroke" d="
  M 264.01 243.37
  L 263.54 234.76
  Q 263.51 234.27 263.92 234.00
  Q 268.05 231.34 269.72 230.95
  Q 288.14 226.59 296.78 209.98
  A 0.66 0.66 0.0 0 0 296.15 209.01
  Q 294.71 209.10 293.85 208.06"
/>
<path stroke="#127871" vector-effect="non-scaling-stroke" d="
  M 293.85 208.06
  Q 301.06 190.94 301.21 172.73
  C 301.27 165.20 291.45 165.73 286.85 167.79
  A 0.47 0.47 0.0 0 1 286.38 166.99
  Q 290.91 163.67 292.51 158.24
  A 0.34 0.34 0.0 0 0 291.88 157.99
  C 287.38 167.05 278.22 170.76 269.49 163.93
  C 263.76 159.46 262.15 150.92 263.95 144.07
  A 1.55 1.54 -76.7 0 0 262.77 142.16
  C 256.04 140.75 244.62 140.00 238.13 143.02
  A 0.71 0.71 0.0 0 0 237.73 143.78
  C 239.43 153.96 237.66 165.54 225.03 166.61
  C 220.52 166.99 216.03 163.47 212.85 160.59
  A 0.61 0.60 53.2 0 0 212.19 160.49
  C 210.10 161.46 217.66 165.90 218.33 166.19
  A 0.46 0.45 61.2 0 1 218.08 167.06
  C 213.03 166.19 207.61 165.32 203.64 169.44
  Q 203.28 169.81 203.26 170.33
  Q 203.19 172.21 203.39 173.93
  Q 205.39 190.99 211.63 207.01"
/>
<path stroke="#126361" vector-effect="non-scaling-stroke" d="
  M 293.85 208.06
  C 284.21 225.15 265.87 229.02 247.68 227.55
  C 240.58 226.98 232.89 224.79 225.65 222.83
  C 218.77 220.97 214.51 212.94 211.63 207.01"
/>
<path stroke="#126361" vector-effect="non-scaling-stroke" d="
  M 264.01 243.37
  C 259.89 246.41 261.08 257.12 261.34 265.85
  Q 261.35 266.33 261.73 266.63
  Q 265.14 269.35 269.34 267.98"
/>
<path stroke="#127871" vector-effect="non-scaling-stroke" d="
  M 221.49 160.12
  Q 218.06 159.29 215.12 157.41
  Q 214.72 157.15 214.96 157.57
  Q 216.97 161.15 221.19 161.28
  Q 221.65 161.30 221.72 160.84
  L 221.76 160.52
  A 0.37 0.35 -80.3 0 0 221.49 160.12"
/>
<path stroke="#127871" vector-effect="non-scaling-stroke" d="
  M 234.0733 238.7727
  A 5.05 4.29 11.8 0 0 230.0073 233.5407
  A 5.05 4.29 11.8 0 0 224.1867 236.7073
  A 5.05 4.29 11.8 0 0 228.2527 241.9393
  A 5.05 4.29 11.8 0 0 234.0733 238.7727"
/>
<path stroke="#127871" vector-effect="non-scaling-stroke" d="
  M 280.5909 236.9420
  A 5.02 4.24 -8.8 0 0 274.9813 233.5199
  A 5.02 4.24 -8.8 0 0 270.6691 238.4780
  A 5.02 4.24 -8.8 0 0 276.2787 241.9001
  A 5.02 4.24 -8.8 0 0 280.5909 236.9420"
/>
<path stroke="#127871" vector-effect="non-scaling-stroke" d="
  M 245.87 249.01
  C 245.37 239.89 233.54 241.12 231.80 249.52
  Q 230.59 255.37 232.36 261.09
  C 234.10 266.72 239.65 270.33 245.29 267.08
  A 0.93 0.92 -13.3 0 0 245.76 266.33
  Q 246.35 257.58 245.87 249.01"
/>
<path stroke="#8f9195" vector-effect="non-scaling-stroke" d="
  M 282.92 177.47
  L 281.80 177.25
  Q 281.31 177.16 280.82 177.31
  Q 253.44 185.78 226.05 177.88"
/>
<path stroke="#8a5e19" vector-effect="non-scaling-stroke" d="
  M 226.05 177.88
  Q 223.18 177.62 220.49 177.22
  C 215.44 176.47 211.84 176.62 210.88 182.35
  C 209.39 191.23 211.82 204.93 219.68 210.70"
/>
<path stroke="#8f9195" vector-effect="non-scaling-stroke" d="
  M 219.68 210.70
  C 225.07 216.00 229.87 219.41 238.01 219.66
  Q 253.35 220.14 263.76 219.63
  C 272.40 219.22 279.14 215.40 286.17 210.42"
/>
<path stroke="#8a5e19" vector-effect="non-scaling-stroke" d="
  M 286.17 210.42
  Q 297.81 199.39 293.26 181.22
  Q 292.66 178.80 290.91 177.01
  A 1.41 1.40 70.4 0 0 290.04 176.59
  Q 286.40 176.23 282.92 177.47"
/>
<path stroke="#f9cb82" vector-effect="non-scaling-stroke" d="
  M 286.17 210.42
  Q 278.54 211.19 275.25 211.25
  Q 247.55 211.72 219.68 210.70"
/>
<path stroke="#f9cb82" vector-effect="non-scaling-stroke" d="
  M 226.05 177.88
  C 224.04 180.30 220.76 182.27 220.02 184.97
  C 218.07 192.05 227.10 193.74 231.76 194.47
  C 243.33 196.28 279.76 197.97 287.62 189.03
  Q 287.96 188.64 287.98 188.13
  C 288.13 184.77 285.56 181.32 283.26 178.62
  A 1.05 1.03 -66.0 0 1 283.01 177.94
  Q 283.02 177.70 282.92 177.47"
/>
<path stroke="#8f9195" vector-effect="non-scaling-stroke" d="
  M 193.75 395.01
  L 193.75 392.02
  Q 193.75 391.45 194.31 391.30
  C 197.25 390.51 208.15 384.99 203.11 381.35
  Q 202.73 381.08 202.26 381.09
  C 198.43 381.19 192.30 382.70 189.39 384.48
  Q 186.96 385.97 186.78 389.49
  C 186.56 394.03 185.10 414.20 190.59 415.08
  A 1.23 1.21 -60.0 0 0 191.54 414.82
  C 193.99 412.76 193.65 407.43 193.82 403.50
  Q 193.85 402.96 194.38 402.84
  C 197.07 402.22 205.98 398.29 202.11 394.19
  A 1.35 1.34 -20.3 0 0 201.17 393.76
  Q 197.55 393.63 194.35 395.36
  Q 193.75 395.69 193.75 395.01"
/>
<path stroke="#116d69" vector-effect="non-scaling-stroke" d="
  M 262.05 391.35
  C 260.48 382.02 250.29 379.45 243.17 384.31
  C 238.63 387.42 239.73 409.78 241.32 413.75
  Q 241.89 415.17 243.41 415.05
  C 255.63 414.12 264.08 403.43 262.05 391.35"
/>
<path stroke="#116d69" vector-effect="non-scaling-stroke" d="
  M 311.71 396.70
  C 311.86 393.96 312.63 381.96 308.27 381.96
  Q 307.77 381.96 307.39 382.30
  C 303.30 385.97 303.85 401.67 303.92 409.00
  C 303.95 411.43 304.20 416.75 308.01 415.93
  Q 308.53 415.82 308.79 415.36
  Q 310.96 411.62 310.41 407.22
  Q 310.34 406.66 310.76 406.31
  L 312.65 404.72
  Q 313.15 404.29 313.41 404.90
  C 314.62 407.78 317.61 415.09 321.07 415.53
  A 1.05 1.03 24.0 0 0 321.98 415.19
  C 324.58 412.23 319.50 403.84 317.79 400.98
  A 0.67 0.66 -37.7 0 1 317.90 400.16
  Q 321.55 396.70 323.30 392.05
  C 324.13 389.84 322.07 388.72 320.11 389.75
  C 316.96 391.40 314.98 394.70 312.28 396.98
  Q 311.67 397.49 311.71 396.70"
/>
<path stroke="#8f9195" vector-effect="non-scaling-stroke" d="
  M 209.07 415.89
  Q 212.84 415.99 212.75 412.40
  Q 212.54 404.36 212.53 396.33
  C 212.52 393.17 213.04 388.34 212.40 384.12
  A 1.96 1.96 0.0 0 0 209.56 382.67
  C 203.05 386.03 204.19 410.18 208.17 415.43
  A 1.16 1.15 71.8 0 0 209.07 415.89"
/>
<path stroke="#116d69" vector-effect="non-scaling-stroke" d="
  M 271.40 406.18
  A 0.56 0.56 0.0 0 1 271.82 405.36
  Q 276.98 404.64 279.80 400.66
  C 286.62 391.03 272.88 383.36 266.97 392.71
  Q 261.15 401.90 266.31 410.36
  C 270.58 417.36 279.76 415.82 282.65 408.74
  C 283.53 406.60 282.29 404.40 279.81 405.33
  C 277.40 406.24 273.62 410.30 271.40 406.18"
/>
<path stroke="#116d69" vector-effect="non-scaling-stroke" d="
  M 288.69 414.81
  C 296.40 420.55 305.18 406.46 298.08 406.46
  Q 297.55 406.46 297.13 406.80
  L 294.08 409.26
  A 1.75 1.75 0.0 0 1 291.31 408.43
  Q 289.22 401.93 293.21 396.44
  A 1.15 1.14 56.3 0 1 295.25 396.85
  C 295.68 398.60 295.37 402.09 298.49 401.25
  Q 300.94 400.59 301.10 397.80
  C 301.62 388.64 292.40 385.44 287.35 392.84
  C 283.32 398.74 282.15 409.94 288.69 414.81"
/>
<path stroke="#8f9195" vector-effect="non-scaling-stroke" d="
  M 230.19 409.72
  C 230.20 412.76 229.45 419.60 226.41 421.27
  Q 224.58 422.27 222.48 421.09
  Q 222.04 420.84 221.53 420.76
  Q 219.54 420.48 218.54 422.23
  A 2.19 2.18 -52.7 0 0 218.89 424.84
  C 222.45 428.43 228.26 428.98 231.90 425.14
  C 236.88 419.89 239.70 395.89 232.96 390.93
  Q 232.53 390.61 231.99 390.67
  C 228.36 391.04 228.81 399.28 228.57 401.98
  C 228.24 405.77 223.07 406.45 222.92 402.10
  C 222.82 399.07 223.44 391.15 219.68 390.18
  A 1.02 1.01 -57.4 0 0 218.78 390.38
  C 214.48 393.93 215.38 405.66 217.65 409.76
  Q 219.84 413.71 225.34 413.25
  A 1.49 1.45 20.8 0 0 226.22 412.87
  L 229.82 409.56
  Q 230.19 409.22 230.19 409.72"
/>
<path stroke="#116d69" vector-effect="non-scaling-stroke" d="
  M 252.78 391.72
  Q 250.68 389.85 248.29 391.26
  Q 247.76 391.56 247.74 392.17
  L 247.40 404.93
  A 0.95 0.94 -13.8 0 0 248.81 405.78
  C 253.46 403.17 257.78 396.14 252.78 391.72"
/>
<path stroke="#116d69" vector-effect="non-scaling-stroke" d="
  M 276.12 396.02
  L 274.61 394.42
  A 0.46 0.46 0.0 0 0 273.96 394.40
  L 273.57 394.77
  A 4.74 1.39 -43.4 0 0 271.08 399.04
  L 271.31 399.29
  A 4.74 1.39 -43.4 0 0 275.71 397.04
  L 276.10 396.67
  A 0.46 0.46 0.0 0 0 276.12 396.02"
/>
</g>
<path fill="#fefefe" d="
  M 0.00 0.00
  L 500.00 0.00
  L 500.00 500.00
  L 0.00 500.00
  L 0.00 0.00
  Z
  M 149.43 125.57
  C 162.26 130.39 175.31 134.90 187.72 140.59
  Q 187.84 140.68 187.93 140.85
  Q 188.12 141.21 187.92 141.57
  C 184.85 147.02 180.00 159.20 184.11 165.00
  A 0.96 0.95 -34.9 0 1 183.87 166.34
  C 177.09 170.99 178.73 181.13 183.43 186.47
  C 181.05 189.76 182.61 218.37 182.72 224.50
  L 177.10 221.02
  Q 176.69 220.77 176.65 220.28
  C 175.78 209.03 166.58 196.97 154.12 198.20
  C 146.83 198.91 148.65 208.71 150.60 212.99
  A 0.33 0.33 0.0 0 1 150.16 213.42
  Q 142.15 209.63 135.90 203.43
  Q 135.39 202.92 135.15 203.60
  Q 134.56 205.24 134.59 207.00
  C 134.79 221.78 144.38 235.69 159.25 238.23
  Q 164.87 239.19 170.25 235.69
  Q 170.69 235.41 171.10 235.74
  Q 176.28 240.04 182.58 242.42
  C 182.36 250.80 180.76 260.13 188.04 264.93
  Q 188.44 265.20 188.78 266.01
  L 188.61 266.27
  Q 188.45 266.53 188.52 266.83
  C 192.46 282.86 211.14 289.33 226.02 289.34
  Q 241.70 289.35 257.55 289.21
  C 276.73 289.44 291.73 290.97 306.35 282.23
  C 312.82 278.35 316.31 273.42 316.73 266.03
  C 316.49 265.44 316.74 264.76 317.27 264.35
  C 322.69 260.08 321.44 250.23 321.20 242.35
  Q 329.81 240.12 336.79 234.68
  A 0.69 0.69 0.0 0 1 337.62 234.67
  C 349.90 243.90 365.09 234.43 370.83 222.66
  Q 374.81 214.51 374.78 204.41
  A 1.02 1.01 66.7 0 0 373.03 203.71
  Q 367.55 209.55 359.86 211.71
  A 0.31 0.31 0.0 0 1 359.47 211.35
  C 360.41 206.84 360.46 199.15 355.62 196.84
  C 349.09 193.72 339.62 202.04 336.10 206.85
  Q 331.84 212.69 332.59 220.61
  Q 332.63 221.10 332.17 221.28
  L 321.24 225.33
  Q 321.19 189.38 321.29 154.25
  Q 321.32 145.82 317.49 138.89
  L 357.76 124.81
  L 368.37 120.76
  Q 369.03 120.51 368.37 120.24
  Q 311.01 96.68 252.95 75.50
  Q 200.09 95.08 148.18 115.16
  Q 144.17 116.72 137.12 120.23
  Q 136.61 120.49 137.11 120.76
  Q 143.05 124.03 149.43 125.57
  Z
  M 170.34 143.31
  Q 164.74 140.28 158.59 141.95
  Q 150.56 142.20 142.90 144.85
  L 112.37 156.18
  Q 112.00 156.32 112.05 156.71
  Q 112.74 161.78 117.67 160.17
  A 0.56 0.56 0.0 0 1 118.17 161.16
  C 115.74 162.84 107.06 167.98 104.74 164.06
  A 0.26 0.26 0.0 0 0 104.26 164.25
  Q 106.14 172.55 113.03 177.63
  A 0.81 0.80 -45.3 0 0 114.01 177.62
  L 116.35 175.80
  A 0.37 0.37 0.0 0 1 116.91 176.26
  L 113.57 182.65
  A 1.35 1.33 -59.9 0 0 114.03 184.41
  Q 118.24 187.10 123.21 187.71
  Q 123.69 187.77 123.74 187.29
  Q 124.41 181.09 128.11 176.11
  A 0.42 0.42 0.0 0 1 128.82 176.55
  Q 126.31 181.53 127.63 187.08
  A 0.63 0.63 0.0 0 0 128.37 187.55
  Q 130.90 187.03 132.82 188.50
  Q 133.35 188.91 133.62 188.30
  Q 141.96 169.50 160.21 156.65
  L 167.58 151.88
  C 169.08 157.69 176.45 153.11 173.15 146.00
  Q 179.20 145.91 178.60 140.57
  A 2.29 2.29 0.0 0 0 175.46 138.70
  Q 172.29 139.99 170.34 143.31
  Z
  M 238.14 321.19
  Q 238.37 312.82 232.56 305.69
  Q 226.63 298.40 216.81 299.25
  C 185.86 304.08 195.39 358.09 225.29 346.83
  C 235.20 343.10 238.84 331.05 238.14 321.19
  Z
  M 267.61 321.41
  C 267.39 334.17 273.37 347.94 288.18 348.24
  Q 296.39 348.41 303.24 341.53
  Q 310.82 330.82 307.67 316.82
  C 305.07 305.31 291.39 294.34 279.44 301.44
  Q 267.74 308.40 267.61 321.41
  Z
  M 375.65 362.78
  Q 371.25 361.01 367.00 361.01
  Q 257.55 361.00 148.10 360.99
  C 135.42 360.99 125.35 364.13 121.20 377.03
  Q 119.91 381.04 119.97 388.64
  Q 120.05 400.08 120.00 411.51
  Q 119.96 419.81 121.30 423.82
  C 124.40 433.10 132.42 439.02 142.41 439.02
  Q 253.65 438.98 364.92 439.01
  C 375.21 439.02 383.36 435.28 386.99 425.21
  Q 388.47 421.08 388.49 412.05
  Q 388.52 399.15 388.48 386.23
  C 388.45 376.51 385.47 366.73 375.65 362.78
  Z
  M 0.86 499.75
  L 2.42 499.77
  A 0.25 0.25 0.0 0 0 2.67 499.52
  L 2.67 499.35
  A 19.06 0.97 -89.4 0 0 1.90 480.28
  L 1.78 480.28
  A 19.06 0.97 -89.4 0 0 0.61 499.33
  L 0.61 499.50
  A 0.25 0.25 0.0 0 0 0.86 499.75
  Z"
/>
<path fill="#f49806" d="
  M 252.95 75.50
  C 253.75 77.30 253.25 77.84 253.25 79.44
  Q 253.29 97.25 253.19 115.33
  Q 235.61 115.42 218.80 118.89
  C 207.70 121.18 199.88 124.62 195.52 134.80
  Q 192.57 141.67 197.44 147.98
  C 199.30 153.16 202.61 158.84 197.02 163.24
  A 1.05 1.04 -48.4 0 0 197.12 164.95
  C 199.31 166.28 201.03 167.96 201.63 170.64
  C 203.36 178.26 203.64 185.61 195.51 189.07
  C 190.24 190.61 187.63 189.71 183.43 186.47
  C 178.73 181.13 177.09 170.99 183.87 166.34
  A 0.96 0.95 -34.9 0 0 184.11 165.00
  C 180.00 159.20 184.85 147.02 187.92 141.57
  Q 188.12 141.21 187.93 140.85
  Q 187.84 140.68 187.72 140.59
  C 188.01 140.40 190.05 131.63 190.71 130.09
  Q 190.79 129.91 190.65 129.78
  L 190.40 129.52
  A 0.24 0.24 0.0 0 0 190.01 129.60
  L 188.56 133.30
  A 0.79 0.79 0.0 0 1 187.55 133.76
  Q 173.92 128.74 160.00 124.51
  Q 154.74 122.90 149.43 125.57
  Q 143.05 124.03 137.11 120.76
  Q 136.61 120.49 137.12 120.23
  Q 144.17 116.72 148.18 115.16
  Q 200.09 95.08 252.95 75.50
  Z"
/>
<path fill="#e36a17" d="
  M 252.95 75.50
  Q 311.01 96.68 368.37 120.24
  Q 369.03 120.51 368.37 120.76
  L 357.76 124.81
  Q 352.90 124.38 348.35 122.41
  Q 347.88 122.20 347.38 122.34
  Q 330.92 126.83 314.94 133.42
  C 307.61 124.99 299.74 121.12 288.20 118.91
  Q 270.73 115.56 253.19 115.33
  Q 253.29 97.25 253.25 79.44
  C 253.25 77.84 253.75 77.30 252.95 75.50
  Z
  M 266.44 95.69
  Q 262.80 103.61 270.87 107.33
  Q 281.54 112.25 292.37 116.80
  C 299.50 119.81 307.51 119.47 314.78 124.14
  Q 315.92 124.88 317.20 124.40
  Q 326.88 120.82 336.99 118.65
  A 0.57 0.57 0.0 0 0 337.05 117.55
  Q 317.29 110.82 297.84 103.51
  C 292.68 101.57 286.09 100.13 280.39 97.79
  C 277.15 96.46 273.42 92.09 269.72 93.03
  Q 267.38 93.63 266.44 95.69
  Z"
/>
<path fill="#f49806" d="
  M 266.44 95.69
  Q 267.38 93.63 269.72 93.03
  C 273.42 92.09 277.15 96.46 280.39 97.79
  C 286.09 100.13 292.68 101.57 297.84 103.51
  Q 317.29 110.82 337.05 117.55
  A 0.57 0.57 0.0 0 1 336.99 118.65
  Q 326.88 120.82 317.20 124.40
  Q 315.92 124.88 314.78 124.14
  C 307.51 119.47 299.50 119.81 292.37 116.80
  Q 281.54 112.25 270.87 107.33
  Q 262.80 103.61 266.44 95.69
  Z"
/>
<path fill="#20242b" d="
  M 253.19 115.33
  Q 270.73 115.56 288.20 118.91
  C 299.74 121.12 307.61 124.99 314.94 133.42
  Q 315.56 136.42 317.49 138.89
  Q 321.32 145.82 321.29 154.25
  Q 321.19 189.38 321.24 225.33
  Q 321.11 225.86 320.55 226.27
  Q 309.05 234.65 321.20 242.35
  C 321.44 250.23 322.69 260.08 317.27 264.35
  C 316.74 264.76 316.49 265.44 316.73 266.03
  Q 315.69 265.58 315.25 265.75
  Q 302.56 270.64 296.66 260.03
  C 296.26 258.54 295.83 257.21 295.81 255.70
  Q 295.62 240.23 295.71 224.69
  Q 295.71 224.19 296.06 223.82
  C 301.17 218.51 302.90 210.24 304.27 203.29
  C 305.04 201.03 306.17 198.71 306.47 196.38
  Q 309.00 176.94 314.20 158.04
  C 319.81 137.60 300.56 125.17 282.96 123.72
  Q 258.26 122.84 233.43 123.18
  C 215.82 123.42 200.47 128.09 197.44 147.98
  Q 192.57 141.67 195.52 134.80
  C 199.88 124.62 207.70 121.18 218.80 118.89
  Q 235.61 115.42 253.19 115.33
  Z"
/>
<path fill="#b20420" d="
  M 357.76 124.81
  L 317.49 138.89
  Q 315.56 136.42 314.94 133.42
  Q 330.92 126.83 347.38 122.34
  Q 347.88 122.20 348.35 122.41
  Q 352.90 124.38 357.76 124.81
  Z"
/>
<path fill="#03cbb6" d="
  M 282.96 123.72
  Q 284.92 124.47 286.94 125.00
  C 295.57 127.26 302.83 135.86 305.80 143.71
  C 308.30 150.34 309.04 161.40 308.61 168.56
  Q 307.82 181.92 304.27 203.29
  C 302.90 210.24 301.17 218.51 296.06 223.82
  Q 295.71 224.19 295.71 224.69
  Q 295.62 240.23 295.81 255.70
  C 295.83 257.21 296.26 258.54 296.66 260.03
  C 285.48 271.05 272.77 280.58 258.07 286.60
  Q 256.35 287.30 257.55 289.21
  Q 241.70 289.35 226.02 289.34
  C 211.14 289.33 192.46 282.86 188.52 266.83
  Q 188.45 266.53 188.61 266.27
  L 188.78 266.01
  C 189.15 265.98 189.36 265.94 189.70 266.14
  C 193.97 268.64 210.25 274.71 210.25 266.00
  Q 210.25 245.50 210.25 225.00
  C 210.25 224.11 209.92 223.01 209.27 222.15
  C 201.52 211.97 198.94 201.09 195.51 189.07
  C 203.64 185.61 203.36 178.26 201.63 170.64
  C 201.03 167.96 199.31 166.28 197.12 164.95
  A 1.05 1.04 -48.4 0 1 197.02 163.24
  C 202.61 158.84 199.30 153.16 197.44 147.98
  C 200.47 128.09 215.82 123.42 233.43 123.18
  Q 258.26 122.84 282.96 123.72
  Z
  M 212.64 153.60
  L 213.93 155.08
  Q 214.28 155.48 214.52 155.01
  Q 217.74 148.77 225.40 144.48
  Q 225.73 147.15 227.14 148.95
  Q 227.43 149.32 227.90 149.39
  C 231.44 149.99 236.91 149.20 236.10 144.14
  C 235.72 141.79 232.68 139.32 230.98 137.46
  C 225.99 131.98 217.82 132.89 213.10 137.76
  C 209.43 141.55 210.04 148.52 211.34 153.16
  A 0.81 0.81 0.0 0 0 211.97 153.73
  Q 212.38 153.81 212.64 153.60
  Z
  M 275.57 146.64
  C 280.30 148.06 286.76 152.37 285.59 157.81
  Q 285.50 158.24 285.12 158.48
  L 280.63 161.35
  A 0.51 0.50 -66.7 0 0 280.99 162.27
  Q 288.60 160.75 289.98 152.48
  Q 292.33 152.29 292.49 149.74
  C 293.56 132.54 273.46 128.06 265.70 142.28
  Q 265.41 142.80 265.74 143.29
  L 269.52 149.08
  A 1.10 1.09 -16.8 0 0 270.46 149.58
  Q 273.62 149.56 275.57 146.64
  Z
  M 211.63 207.01
  C 208.79 225.01 228.50 228.48 240.86 232.15
  Q 241.35 232.30 241.84 232.13
  C 244.64 231.18 249.59 227.92 252.84 229.05
  Q 253.37 229.24 253.39 229.80
  Q 254.19 256.86 253.40 283.91
  Q 253.36 285.23 254.67 285.10
  Q 261.50 284.40 266.36 279.49
  A 1.07 1.07 0.0 0 0 266.64 278.52
  Q 266.11 275.99 267.96 274.19
  Q 268.32 273.84 268.41 273.35
  L 269.34 267.98
  C 274.16 264.64 275.72 259.01 275.48 253.36
  C 275.23 247.72 270.20 241.49 264.01 243.37
  L 263.54 234.76
  Q 263.51 234.27 263.92 234.00
  Q 268.05 231.34 269.72 230.95
  Q 288.14 226.59 296.78 209.98
  A 0.66 0.66 0.0 0 0 296.15 209.01
  Q 294.71 209.10 293.85 208.06
  Q 301.06 190.94 301.21 172.73
  C 301.27 165.20 291.45 165.73 286.85 167.79
  A 0.47 0.47 0.0 0 1 286.38 166.99
  Q 290.91 163.67 292.51 158.24
  A 0.34 0.34 0.0 0 0 291.88 157.99
  C 287.38 167.05 278.22 170.76 269.49 163.93
  C 263.76 159.46 262.15 150.92 263.95 144.07
  A 1.55 1.54 -76.7 0 0 262.77 142.16
  C 256.04 140.75 244.62 140.00 238.13 143.02
  A 0.71 0.71 0.0 0 0 237.73 143.78
  C 239.43 153.96 237.66 165.54 225.03 166.61
  C 220.52 166.99 216.03 163.47 212.85 160.59
  A 0.61 0.60 53.2 0 0 212.19 160.49
  C 210.10 161.46 217.66 165.90 218.33 166.19
  A 0.46 0.45 61.2 0 1 218.08 167.06
  C 213.03 166.19 207.61 165.32 203.64 169.44
  Q 203.28 169.81 203.26 170.33
  Q 203.19 172.21 203.39 173.93
  Q 205.39 190.99 211.63 207.01
  Z
  M 221.49 160.12
  Q 218.06 159.29 215.12 157.41
  Q 214.72 157.15 214.96 157.57
  Q 216.97 161.15 221.19 161.28
  Q 221.65 161.30 221.72 160.84
  L 221.76 160.52
  A 0.37 0.35 -80.3 0 0 221.49 160.12
  Z
  M 234.0733 238.7727
  A 5.05 4.29 11.8 0 0 230.0073 233.5407
  A 5.05 4.29 11.8 0 0 224.1867 236.7073
  A 5.05 4.29 11.8 0 0 228.2527 241.9393
  A 5.05 4.29 11.8 0 0 234.0733 238.7727
  Z
  M 280.5909 236.9420
  A 5.02 4.24 -8.8 0 0 274.9813 233.5199
  A 5.02 4.24 -8.8 0 0 270.6691 238.4780
  A 5.02 4.24 -8.8 0 0 276.2787 241.9001
  A 5.02 4.24 -8.8 0 0 280.5909 236.9420
  Z
  M 245.87 249.01
  C 245.37 239.89 233.54 241.12 231.80 249.52
  Q 230.59 255.37 232.36 261.09
  C 234.10 266.72 239.65 270.33 245.29 267.08
  A 0.93 0.92 -13.3 0 0 245.76 266.33
  Q 246.35 257.58 245.87 249.01
  Z"
/>
<path fill="#03a197" d="
  M 282.96 123.72
  C 300.56 125.17 319.81 137.60 314.20 158.04
  Q 309.00 176.94 306.47 196.38
  C 306.17 198.71 305.04 201.03 304.27 203.29
  Q 307.82 181.92 308.61 168.56
  C 309.04 161.40 308.30 150.34 305.80 143.71
  C 302.83 135.86 295.57 127.26 286.94 125.00
  Q 284.92 124.47 282.96 123.72
  Z"
/>
<path fill="#b20420" d="
  M 187.72 140.59
  C 175.31 134.90 162.26 130.39 149.43 125.57
  Q 154.74 122.90 160.00 124.51
  Q 173.92 128.74 187.55 133.76
  A 0.79 0.79 0.0 0 0 188.56 133.30
  L 190.01 129.60
  A 0.24 0.24 0.0 0 1 190.40 129.52
  L 190.65 129.78
  Q 190.79 129.91 190.71 130.09
  C 190.05 131.63 188.01 140.40 187.72 140.59
  Z"
/>
<path fill="#fefefe" d="
  M 225.40 144.48
  Q 215.35 140.55 212.64 153.60
  Q 212.38 153.81 211.97 153.73
  A 0.81 0.81 0.0 0 1 211.34 153.16
  C 210.04 148.52 209.43 141.55 213.10 137.76
  C 217.82 132.89 225.99 131.98 230.98 137.46
  C 232.68 139.32 235.72 141.79 236.10 144.14
  C 236.91 149.20 231.44 149.99 227.90 149.39
  Q 227.43 149.32 227.14 148.95
  Q 225.73 147.15 225.40 144.48
  Z"
/>
<path fill="#fefefe" d="
  M 289.98 152.48
  C 288.41 145.45 283.37 141.50 276.17 144.07
  Q 275.67 144.24 275.55 144.76
  Q 275.33 145.76 275.57 146.64
  Q 273.62 149.56 270.46 149.58
  A 1.10 1.09 -16.8 0 1 269.52 149.08
  L 265.74 143.29
  Q 265.41 142.80 265.70 142.28
  C 273.46 128.06 293.56 132.54 292.49 149.74
  Q 292.33 152.29 289.98 152.48
  Z"
/>
<path fill="#e36a17" d="
  M 173.15 146.00
  L 170.30 144.01
  Q 170.13 143.47 170.34 143.31
  Q 172.29 139.99 175.46 138.70
  A 2.29 2.29 0.0 0 1 178.60 140.57
  Q 179.20 145.91 173.15 146.00
  Z"
/>
<path fill="#20242b" d="
  M 293.85 208.06
  C 284.21 225.15 265.87 229.02 247.68 227.55
  C 240.58 226.98 232.89 224.79 225.65 222.83
  C 218.77 220.97 214.51 212.94 211.63 207.01
  Q 205.39 190.99 203.39 173.93
  Q 203.19 172.21 203.26 170.33
  Q 203.28 169.81 203.64 169.44
  C 207.61 165.32 213.03 166.19 218.08 167.06
  A 0.46 0.45 61.2 0 0 218.33 166.19
  C 217.66 165.90 210.10 161.46 212.19 160.49
  A 0.61 0.60 53.2 0 1 212.85 160.59
  C 216.03 163.47 220.52 166.99 225.03 166.61
  C 237.66 165.54 239.43 153.96 237.73 143.78
  A 0.71 0.71 0.0 0 1 238.13 143.02
  C 244.62 140.00 256.04 140.75 262.77 142.16
  A 1.55 1.54 -76.7 0 1 263.95 144.07
  C 262.15 150.92 263.76 159.46 269.49 163.93
  C 278.22 170.76 287.38 167.05 291.88 157.99
  A 0.34 0.34 0.0 0 1 292.51 158.24
  Q 290.91 163.67 286.38 166.99
  A 0.47 0.47 0.0 0 0 286.85 167.79
  C 291.45 165.73 301.27 165.20 301.21 172.73
  Q 301.06 190.94 293.85 208.06
  Z
  M 282.92 177.47
  L 281.80 177.25
  Q 281.31 177.16 280.82 177.31
  Q 253.44 185.78 226.05 177.88
  Q 223.18 177.62 220.49 177.22
  C 215.44 176.47 211.84 176.62 210.88 182.35
  C 209.39 191.23 211.82 204.93 219.68 210.70
  C 225.07 216.00 229.87 219.41 238.01 219.66
  Q 253.35 220.14 263.76 219.63
  C 272.40 219.22 279.14 215.40 286.17 210.42
  Q 297.81 199.39 293.26 181.22
  Q 292.66 178.80 290.91 177.01
  A 1.41 1.40 70.4 0 0 290.04 176.59
  Q 286.40 176.23 282.92 177.47
  Z"
/>
<path fill="#b20420" d="
  M 170.34 143.31
  Q 170.13 143.47 170.30 144.01
  C 166.71 145.05 167.65 149.01 167.58 151.88
  L 160.21 156.65
  Q 149.15 156.95 144.23 158.45
  Q 134.96 161.28 117.29 169.58
  Q 116.12 170.13 117.09 169.28
  L 125.64 161.82
  L 134.94 153.74
  L 146.99 147.28
  L 158.59 141.95
  Q 164.74 140.28 170.34 143.31
  Z"
/>
<path fill="#e36a17" d="
  M 158.59 141.95
  L 146.99 147.28
  L 142.90 144.85
  Q 150.56 142.20 158.59 141.95
  Z"
/>
<path fill="#20242b" d="
  M 289.98 152.48
  Q 288.60 160.75 280.99 162.27
  A 0.51 0.50 -66.7 0 1 280.63 161.35
  L 285.12 158.48
  Q 285.50 158.24 285.59 157.81
  C 286.76 152.37 280.30 148.06 275.57 146.64
  Q 275.33 145.76 275.55 144.76
  Q 275.67 144.24 276.17 144.07
  C 283.37 141.50 288.41 145.45 289.98 152.48
  Z"
/>
<path fill="#20242b" d="
  M 225.40 144.48
  Q 217.74 148.77 214.52 155.01
  Q 214.28 155.48 213.93 155.08
  L 212.64 153.60
  Q 215.35 140.55 225.40 144.48
  Z"
/>
<path fill="#f49806" d="
  M 170.30 144.01
  L 173.15 146.00
  C 176.45 153.11 169.08 157.69 167.58 151.88
  C 167.65 149.01 166.71 145.05 170.30 144.01
  Z"
/>
<path fill="#f49806" d="
  M 142.90 144.85
  L 146.99 147.28
  L 134.94 153.74
  Q 128.86 154.61 124.80 159.75
  Q 124.52 160.10 124.83 160.43
  Q 125.40 161.07 125.64 161.82
  L 117.09 169.28
  Q 116.12 170.13 117.29 169.58
  Q 134.96 161.28 144.23 158.45
  Q 149.15 156.95 160.21 156.65
  Q 141.96 169.50 133.62 188.30
  Q 133.35 188.91 132.82 188.50
  Q 130.90 187.03 128.37 187.55
  A 0.63 0.63 0.0 0 1 127.63 187.08
  Q 126.31 181.53 128.82 176.55
  A 0.42 0.42 0.0 0 0 128.11 176.11
  Q 124.41 181.09 123.74 187.29
  Q 123.69 187.77 123.21 187.71
  Q 118.24 187.10 114.03 184.41
  A 1.35 1.33 -59.9 0 1 113.57 182.65
  L 116.91 176.26
  A 0.37 0.37 0.0 0 0 116.35 175.80
  L 114.01 177.62
  A 0.81 0.80 -45.3 0 1 113.03 177.63
  Q 106.14 172.55 104.26 164.25
  A 0.26 0.26 0.0 0 1 104.74 164.06
  C 107.06 167.98 115.74 162.84 118.17 161.16
  A 0.56 0.56 0.0 0 0 117.67 160.17
  Q 112.74 161.78 112.05 156.71
  Q 112.00 156.32 112.37 156.18
  L 142.90 144.85
  Z"
/>
<path fill="#e36a17" d="
  M 134.94 153.74
  L 125.64 161.82
  Q 125.40 161.07 124.83 160.43
  Q 124.52 160.10 124.80 159.75
  Q 128.86 154.61 134.94 153.74
  Z"
/>
<path fill="#20242b" d="
  M 221.49 160.12
  A 0.37 0.35 -80.3 0 1 221.76 160.52
  L 221.72 160.84
  Q 221.65 161.30 221.19 161.28
  Q 216.97 161.15 214.96 157.57
  Q 214.72 157.15 215.12 157.41
  Q 218.06 159.29 221.49 160.12
  Z"
/>
<path fill="#f49806" d="
  M 286.17 210.42
  Q 278.54 211.19 275.25 211.25
  Q 247.55 211.72 219.68 210.70
  C 211.82 204.93 209.39 191.23 210.88 182.35
  C 211.84 176.62 215.44 176.47 220.49 177.22
  Q 223.18 177.62 226.05 177.88
  C 224.04 180.30 220.76 182.27 220.02 184.97
  C 218.07 192.05 227.10 193.74 231.76 194.47
  C 243.33 196.28 279.76 197.97 287.62 189.03
  Q 287.96 188.64 287.98 188.13
  C 288.13 184.77 285.56 181.32 283.26 178.62
  A 1.05 1.03 -66.0 0 1 283.01 177.94
  Q 283.02 177.70 282.92 177.47
  Q 286.40 176.23 290.04 176.59
  A 1.41 1.40 70.4 0 1 290.91 177.01
  Q 292.66 178.80 293.26 181.22
  Q 297.81 199.39 286.17 210.42
  Z"
/>
<path fill="#fefefe" d="
  M 282.92 177.47
  Q 283.02 177.70 283.01 177.94
  A 1.05 1.03 -66.0 0 0 283.26 178.62
  C 285.56 181.32 288.13 184.77 287.98 188.13
  Q 287.96 188.64 287.62 189.03
  C 279.76 197.97 243.33 196.28 231.76 194.47
  C 227.10 193.74 218.07 192.05 220.02 184.97
  C 220.76 182.27 224.04 180.30 226.05 177.88
  Q 253.44 185.78 280.82 177.31
  Q 281.31 177.16 281.80 177.25
  L 282.92 177.47
  Z"
/>
<path fill="#20242b" d="
  M 183.43 186.47
  C 187.63 189.71 190.24 190.61 195.51 189.07
  C 198.94 201.09 201.52 211.97 209.27 222.15
  C 209.92 223.01 210.25 224.11 210.25 225.00
  Q 210.25 245.50 210.25 266.00
  C 210.25 274.71 193.97 268.64 189.70 266.14
  C 189.36 265.94 189.15 265.98 188.78 266.01
  Q 188.44 265.20 188.04 264.93
  C 180.76 260.13 182.36 250.80 182.58 242.42
  C 194.85 238.64 187.77 229.98 182.72 224.50
  C 182.61 218.37 181.05 189.76 183.43 186.47
  Z"
/>
<path fill="#03cbb6" d="
  M 321.20 242.35
  Q 309.05 234.65 320.55 226.27
  Q 321.11 225.86 321.24 225.33
  L 332.17 221.28
  Q 332.63 221.10 332.59 220.61
  Q 331.84 212.69 336.10 206.85
  C 339.62 202.04 349.09 193.72 355.62 196.84
  C 360.46 199.15 360.41 206.84 359.47 211.35
  A 0.31 0.31 0.0 0 0 359.86 211.71
  Q 367.55 209.55 373.03 203.71
  A 1.02 1.01 66.7 0 1 374.78 204.41
  Q 374.81 214.51 370.83 222.66
  C 365.09 234.43 349.90 243.90 337.62 234.67
  A 0.69 0.69 0.0 0 0 336.79 234.68
  Q 329.81 240.12 321.20 242.35
  Z"
/>
<path fill="#01b6a6" d="
  M 182.72 224.50
  C 187.77 229.98 194.85 238.64 182.58 242.42
  Q 176.28 240.04 171.10 235.74
  Q 170.69 235.41 170.25 235.69
  Q 164.87 239.19 159.25 238.23
  C 144.38 235.69 134.79 221.78 134.59 207.00
  Q 134.56 205.24 135.15 203.60
  Q 135.39 202.92 135.90 203.43
  Q 142.15 209.63 150.16 213.42
  A 0.33 0.33 0.0 0 0 150.60 212.99
  C 148.65 208.71 146.83 198.91 154.12 198.20
  C 166.58 196.97 175.78 209.03 176.65 220.28
  Q 176.69 220.77 177.10 221.02
  L 182.72 224.50
  Z"
/>
<path fill="#03a197" d="
  M 211.63 207.01
  C 214.51 212.94 218.77 220.97 225.65 222.83
  C 232.89 224.79 240.58 226.98 247.68 227.55
  C 265.87 229.02 284.21 225.15 293.85 208.06
  Q 294.71 209.10 296.15 209.01
  A 0.66 0.66 0.0 0 1 296.78 209.98
  Q 288.14 226.59 269.72 230.95
  Q 268.05 231.34 263.92 234.00
  Q 263.51 234.27 263.54 234.76
  L 264.01 243.37
  C 259.89 246.41 261.08 257.12 261.34 265.85
  Q 261.35 266.33 261.73 266.63
  Q 265.14 269.35 269.34 267.98
  L 268.41 273.35
  Q 268.32 273.84 267.96 274.19
  Q 266.11 275.99 266.64 278.52
  A 1.07 1.07 0.0 0 1 266.36 279.49
  Q 261.50 284.40 254.67 285.10
  Q 253.36 285.23 253.40 283.91
  Q 254.19 256.86 253.39 229.80
  Q 253.37 229.24 252.84 229.05
  C 249.59 227.92 244.64 231.18 241.84 232.13
  Q 241.35 232.30 240.86 232.15
  C 228.50 228.48 208.79 225.01 211.63 207.01
  Z"
/>
<path fill="#fefefe" d="
  M 286.17 210.42
  C 279.14 215.40 272.40 219.22 263.76 219.63
  Q 253.35 220.14 238.01 219.66
  C 229.87 219.41 225.07 216.00 219.68 210.70
  Q 247.55 211.72 275.25 211.25
  Q 278.54 211.19 286.17 210.42
  Z"
/>
<ellipse fill="#20242b" cx="0.00" cy="0.00" transform="translate(229.13,237.74) rotate(11.8)" rx="5.05" ry="4.29"/>
<ellipse fill="#20242b" cx="0.00" cy="0.00" transform="translate(275.63,237.71) rotate(-8.8)" rx="5.02" ry="4.24"/>
<path fill="#20242b" d="
  M 231.80 249.52
  C 233.54 241.12 245.37 239.89 245.87 249.01
  Q 246.35 257.58 245.76 266.33
  A 0.93 0.92 -13.3 0 1 245.29 267.08
  C 239.65 270.33 234.10 266.72 232.36 261.09
  Q 230.59 255.37 231.80 249.52
  Z"
/>
<path fill="#20242b" d="
  M 269.34 267.98
  Q 265.14 269.35 261.73 266.63
  Q 261.35 266.33 261.34 265.85
  C 261.08 257.12 259.89 246.41 264.01 243.37
  C 270.20 241.49 275.23 247.72 275.48 253.36
  C 275.72 259.01 274.16 264.64 269.34 267.98
  Z"
/>
<path fill="#01b6a6" d="
  M 296.66 260.03
  Q 302.56 270.64 315.25 265.75
  Q 315.69 265.58 316.73 266.03
  C 316.31 273.42 312.82 278.35 306.35 282.23
  C 291.73 290.97 276.73 289.44 257.55 289.21
  Q 256.35 287.30 258.07 286.60
  C 272.77 280.58 285.48 271.05 296.66 260.03
  Z"
/>
<path fill="#f49806" d="
  M 216.81 299.25
  L 209.77 326.66
  A 1.08 1.07 16.5 0 0 210.48 327.95
  Q 214.98 329.42 219.69 328.93
  Q 227.63 328.11 238.14 321.19
  C 238.84 331.05 235.20 343.10 225.29 346.83
  C 195.39 358.09 185.86 304.08 216.81 299.25
  Z"
/>
<path fill="#e36a17" d="
  M 216.81 299.25
  Q 226.63 298.40 232.56 305.69
  Q 238.37 312.82 238.14 321.19
  Q 227.63 328.11 219.69 328.93
  Q 214.98 329.42 210.48 327.95
  A 1.08 1.07 16.5 0 1 209.77 326.66
  L 216.81 299.25
  Z"
/>
<path fill="#e36a17" d="
  M 303.24 341.53
  Q 296.42 338.95 290.11 335.65
  C 284.56 332.75 281.71 327.93 275.65 325.45
  Q 271.66 323.81 267.61 321.41
  Q 267.74 308.40 279.44 301.44
  C 291.39 294.34 305.07 305.31 307.67 316.82
  Q 310.82 330.82 303.24 341.53
  Z"
/>
<path fill="#f49806" d="
  M 303.24 341.53
  Q 296.39 348.41 288.18 348.24
  C 273.37 347.94 267.39 334.17 267.61 321.41
  Q 271.66 323.81 275.65 325.45
  C 281.71 327.93 284.56 332.75 290.11 335.65
  Q 296.42 338.95 303.24 341.53
  Z"
/>
<path fill="#20242b" d="
  M 375.65 362.78
  C 385.47 366.73 388.45 376.51 388.48 386.23
  Q 388.52 399.15 388.49 412.05
  Q 388.47 421.08 386.99 425.21
  C 383.36 435.28 375.21 439.02 364.92 439.01
  Q 253.65 438.98 142.41 439.02
  C 132.42 439.02 124.40 433.10 121.30 423.82
  Q 119.96 419.81 120.00 411.51
  Q 120.05 400.08 119.97 388.64
  Q 119.91 381.04 121.20 377.03
  C 125.35 364.13 135.42 360.99 148.10 360.99
  Q 257.55 361.00 367.00 361.01
  Q 371.25 361.01 375.65 362.78
  Z
  M 193.75 395.01
  L 193.75 392.02
  Q 193.75 391.45 194.31 391.30
  C 197.25 390.51 208.15 384.99 203.11 381.35
  Q 202.73 381.08 202.26 381.09
  C 198.43 381.19 192.30 382.70 189.39 384.48
  Q 186.96 385.97 186.78 389.49
  C 186.56 394.03 185.10 414.20 190.59 415.08
  A 1.23 1.21 -60.0 0 0 191.54 414.82
  C 193.99 412.76 193.65 407.43 193.82 403.50
  Q 193.85 402.96 194.38 402.84
  C 197.07 402.22 205.98 398.29 202.11 394.19
  A 1.35 1.34 -20.3 0 0 201.17 393.76
  Q 197.55 393.63 194.35 395.36
  Q 193.75 395.69 193.75 395.01
  Z
  M 262.05 391.35
  C 260.48 382.02 250.29 379.45 243.17 384.31
  C 238.63 387.42 239.73 409.78 241.32 413.75
  Q 241.89 415.17 243.41 415.05
  C 255.63 414.12 264.08 403.43 262.05 391.35
  Z
  M 311.71 396.70
  C 311.86 393.96 312.63 381.96 308.27 381.96
  Q 307.77 381.96 307.39 382.30
  C 303.30 385.97 303.85 401.67 303.92 409.00
  C 303.95 411.43 304.20 416.75 308.01 415.93
  Q 308.53 415.82 308.79 415.36
  Q 310.96 411.62 310.41 407.22
  Q 310.34 406.66 310.76 406.31
  L 312.65 404.72
  Q 313.15 404.29 313.41 404.90
  C 314.62 407.78 317.61 415.09 321.07 415.53
  A 1.05 1.03 24.0 0 0 321.98 415.19
  C 324.58 412.23 319.50 403.84 317.79 400.98
  A 0.67 0.66 -37.7 0 1 317.90 400.16
  Q 321.55 396.70 323.30 392.05
  C 324.13 389.84 322.07 388.72 320.11 389.75
  C 316.96 391.40 314.98 394.70 312.28 396.98
  Q 311.67 397.49 311.71 396.70
  Z
  M 209.07 415.89
  Q 212.84 415.99 212.75 412.40
  Q 212.54 404.36 212.53 396.33
  C 212.52 393.17 213.04 388.34 212.40 384.12
  A 1.96 1.96 0.0 0 0 209.56 382.67
  C 203.05 386.03 204.19 410.18 208.17 415.43
  A 1.16 1.15 71.8 0 0 209.07 415.89
  Z
  M 271.40 406.18
  A 0.56 0.56 0.0 0 1 271.82 405.36
  Q 276.98 404.64 279.80 400.66
  C 286.62 391.03 272.88 383.36 266.97 392.71
  Q 261.15 401.90 266.31 410.36
  C 270.58 417.36 279.76 415.82 282.65 408.74
  C 283.53 406.60 282.29 404.40 279.81 405.33
  C 277.40 406.24 273.62 410.30 271.40 406.18
  Z
  M 288.69 414.81
  C 296.40 420.55 305.18 406.46 298.08 406.46
  Q 297.55 406.46 297.13 406.80
  L 294.08 409.26
  A 1.75 1.75 0.0 0 1 291.31 408.43
  Q 289.22 401.93 293.21 396.44
  A 1.15 1.14 56.3 0 1 295.25 396.85
  C 295.68 398.60 295.37 402.09 298.49 401.25
  Q 300.94 400.59 301.10 397.80
  C 301.62 388.64 292.40 385.44 287.35 392.84
  C 283.32 398.74 282.15 409.94 288.69 414.81
  Z
  M 230.19 409.72
  C 230.20 412.76 229.45 419.60 226.41 421.27
  Q 224.58 422.27 222.48 421.09
  Q 222.04 420.84 221.53 420.76
  Q 219.54 420.48 218.54 422.23
  A 2.19 2.18 -52.7 0 0 218.89 424.84
  C 222.45 428.43 228.26 428.98 231.90 425.14
  C 236.88 419.89 239.70 395.89 232.96 390.93
  Q 232.53 390.61 231.99 390.67
  C 228.36 391.04 228.81 399.28 228.57 401.98
  C 228.24 405.77 223.07 406.45 222.92 402.10
  C 222.82 399.07 223.44 391.15 219.68 390.18
  A 1.02 1.01 -57.4 0 0 218.78 390.38
  C 214.48 393.93 215.38 405.66 217.65 409.76
  Q 219.84 413.71 225.34 413.25
  A 1.49 1.45 20.8 0 0 226.22 412.87
  L 229.82 409.56
  Q 230.19 409.22 230.19 409.72
  Z"
/>
<path fill="#fefefe" d="
  M 194.35 395.36
  Q 197.55 393.63 201.17 393.76
  A 1.35 1.34 -20.3 0 1 202.11 394.19
  C 205.98 398.29 197.07 402.22 194.38 402.84
  Q 193.85 402.96 193.82 403.50
  C 193.65 407.43 193.99 412.76 191.54 414.82
  A 1.23 1.21 -60.0 0 1 190.59 415.08
  C 185.10 414.20 186.56 394.03 186.78 389.49
  Q 186.96 385.97 189.39 384.48
  C 192.30 382.70 198.43 381.19 202.26 381.09
  Q 202.73 381.08 203.11 381.35
  C 208.15 384.99 197.25 390.51 194.31 391.30
  Q 193.75 391.45 193.75 392.02
  L 193.75 395.01
  Q 193.75 395.69 194.35 395.36
  Z"
/>
<path fill="#01b6a6" d="
  M 243.17 384.31
  C 250.29 379.45 260.48 382.02 262.05 391.35
  C 264.08 403.43 255.63 414.12 243.41 415.05
  Q 241.89 415.17 241.32 413.75
  C 239.73 409.78 238.63 387.42 243.17 384.31
  Z
  M 252.78 391.72
  Q 250.68 389.85 248.29 391.26
  Q 247.76 391.56 247.74 392.17
  L 247.40 404.93
  A 0.95 0.94 -13.8 0 0 248.81 405.78
  C 253.46 403.17 257.78 396.14 252.78 391.72
  Z"
/>
<path fill="#01b6a6" d="
  M 312.28 396.98
  C 314.98 394.70 316.96 391.40 320.11 389.75
  C 322.07 388.72 324.13 389.84 323.30 392.05
  Q 321.55 396.70 317.90 400.16
  A 0.67 0.66 -37.7 0 0 317.79 400.98
  C 319.50 403.84 324.58 412.23 321.98 415.19
  A 1.05 1.03 24.0 0 1 321.07 415.53
  C 317.61 415.09 314.62 407.78 313.41 404.90
  Q 313.15 404.29 312.65 404.72
  L 310.76 406.31
  Q 310.34 406.66 310.41 407.22
  Q 310.96 411.62 308.79 415.36
  Q 308.53 415.82 308.01 415.93
  C 304.20 416.75 303.95 411.43 303.92 409.00
  C 303.85 401.67 303.30 385.97 307.39 382.30
  Q 307.77 381.96 308.27 381.96
  C 312.63 381.96 311.86 393.96 311.71 396.70
  Q 311.67 397.49 312.28 396.98
  Z"
/>
<path fill="#fefefe" d="
  M 208.17 415.43
  C 204.19 410.18 203.05 386.03 209.56 382.67
  A 1.96 1.96 0.0 0 1 212.40 384.12
  C 213.04 388.34 212.52 393.17 212.53 396.33
  Q 212.54 404.36 212.75 412.40
  Q 212.84 415.99 209.07 415.89
  A 1.16 1.15 71.8 0 1 208.17 415.43
  Z"
/>
<path fill="#01b6a6" d="
  M 271.40 406.18
  C 273.62 410.30 277.40 406.24 279.81 405.33
  C 282.29 404.40 283.53 406.60 282.65 408.74
  C 279.76 415.82 270.58 417.36 266.31 410.36
  Q 261.15 401.90 266.97 392.71
  C 272.88 383.36 286.62 391.03 279.80 400.66
  Q 276.98 404.64 271.82 405.36
  A 0.56 0.56 0.0 0 0 271.40 406.18
  Z
  M 276.12 396.02
  L 274.61 394.42
  A 0.46 0.46 0.0 0 0 273.96 394.40
  L 273.57 394.77
  A 4.74 1.39 -43.4 0 0 271.08 399.04
  L 271.31 399.29
  A 4.74 1.39 -43.4 0 0 275.71 397.04
  L 276.10 396.67
  A 0.46 0.46 0.0 0 0 276.12 396.02
  Z"
/>
<path fill="#01b6a6" d="
  M 288.69 414.81
  C 282.15 409.94 283.32 398.74 287.35 392.84
  C 292.40 385.44 301.62 388.64 301.10 397.80
  Q 300.94 400.59 298.49 401.25
  C 295.37 402.09 295.68 398.60 295.25 396.85
  A 1.15 1.14 56.3 0 0 293.21 396.44
  Q 289.22 401.93 291.31 408.43
  A 1.75 1.75 0.0 0 0 294.08 409.26
  L 297.13 406.80
  Q 297.55 406.46 298.08 406.46
  C 305.18 406.46 296.40 420.55 288.69 414.81
  Z"
/>
<path fill="#fefefe" d="
  M 229.82 409.56
  L 226.22 412.87
  A 1.49 1.45 20.8 0 1 225.34 413.25
  Q 219.84 413.71 217.65 409.76
  C 215.38 405.66 214.48 393.93 218.78 390.38
  A 1.02 1.01 -57.4 0 1 219.68 390.18
  C 223.44 391.15 222.82 399.07 222.92 402.10
  C 223.07 406.45 228.24 405.77 228.57 401.98
  C 228.81 399.28 228.36 391.04 231.99 390.67
  Q 232.53 390.61 232.96 390.93
  C 239.70 395.89 236.88 419.89 231.90 425.14
  C 228.26 428.98 222.45 428.43 218.89 424.84
  A 2.19 2.18 -52.7 0 1 218.54 422.23
  Q 219.54 420.48 221.53 420.76
  Q 222.04 420.84 222.48 421.09
  Q 224.58 422.27 226.41 421.27
  C 229.45 419.60 230.20 412.76 230.19 409.72
  Q 230.19 409.22 229.82 409.56
  Z"
/>
<path fill="#20242b" d="
  M 252.78 391.72
  C 257.78 396.14 253.46 403.17 248.81 405.78
  A 0.95 0.94 -13.8 0 1 247.40 404.93
  L 247.74 392.17
  Q 247.76 391.56 248.29 391.26
  Q 250.68 389.85 252.78 391.72
  Z"
/>
<path fill="#20242b" d="
  M 276.12 396.02
  A 0.46 0.46 0.0 0 1 276.10 396.67
  L 275.71 397.04
  A 4.74 1.39 -43.4 0 1 271.31 399.29
  L 271.08 399.04
  A 4.74 1.39 -43.4 0 1 273.57 394.77
  L 273.96 394.40
  A 0.46 0.46 0.0 0 1 274.61 394.42
  L 276.12 396.02
  Z"
/>
<path fill="#20242b" d="
  M 0.86 499.75
  A 0.25 0.25 0.0 0 1 0.61 499.50
  L 0.61 499.33
  A 19.06 0.97 -89.4 0 1 1.78 480.28
  L 1.90 480.28
  A 19.06 0.97 -89.4 0 1 2.67 499.35
  L 2.67 499.52
  A 0.25 0.25 0.0 0 1 2.42 499.77
  L 0.86 499.75
  Z"
/>
</svg>
